<?xml version="1.0" encoding="UTF-8" standalone="no"?>
<svg width="94px" height="96px" viewBox="0 0 94 96" version="1.1" xmlns="http://www.w3.org/2000/svg" xmlns:xlink="http://www.w3.org/1999/xlink">
    <!-- Generator: Sketch 3.7.2 (28276) - http://www.bohemiancoding.com/sketch -->
    <title>Shape</title>
    <desc>Created with Sketch.</desc>
    <defs></defs>
    <g id="Page-1" stroke="none" stroke-width="1" fill="none" fill-rule="evenodd">
        <g id="bull" fill="#FFFFFF">
            <g id="Page-1">
                <g id="bull">
                    <path d="M93.1,7.824 C92.684,6.94 91.692,6.464 90.76,6.736 C87.58,7.596 84.176,8.032 80.632,8.032 C71.776,8.032 63.204,5.336 56.305,3.172 C51.868,1.768 48.028,0.576 44.884,0.276 C43.672,0.164 42.396,0.08 41.084,0.08 C31.928,0.08 25.372,4.26 21.112,12.664 C19.276,17.572 19.172,22.056 21.012,25.964 C23.456,31.16 28.668,34.22 31.576,35.008 C32.64,35.3 33.268,36.404 32.98,37.464 C32.736,38.352 31.932,38.94 31.052,38.94 C30.88,38.94 30.7,38.916 30.524,38.868 C27.408,38.016 20.652,34.588 17.392,27.664 C16.368,25.488 15.808,23.188 15.668,20.8 C6.02,28.644 0.716,41.644 0.716,58.064 C0.716,67.719 5.428,77.32 13.644,84.423 C22.228,91.839 33.808,95.923 46.256,95.923 C51.504,95.923 56.893,95.194 62.272,93.775 C63.132,93.547 63.741,92.784 63.764,91.883 C63.928,85.111 56.153,77.687 52.436,75.023 C52.364,74.064 52.548,72.359 52.936,70.679 C37.688,68.023 24.42,60.46 20.9,51.977 C20.476,50.96 20.96,49.792 21.984,49.369 C23,48.957 24.172,49.432 24.596,50.453 C27.804,58.188 41.716,65.352 56.779,67.209 C61.484,67.293 66.551,69.129 67.359,70.077 C67.832,70.625 68.572,70.881 69.288,70.733 C70.004,70.585 70.576,70.061 70.788,69.365 C70.943,68.873 71.132,68.061 71.296,67.145 C65.38,57.481 57.468,58.365 52.204,58.964 C50.552,59.152 49.252,59.3 48.132,59.145 C47.04,58.989 46.28,57.973 46.432,56.889 C46.588,55.796 47.584,55.02 48.691,55.184 C49.304,55.268 50.488,55.128 51.752,54.996 C56.844,54.412 65.916,53.404 72.973,62.536 C82.285,59.568 81.78,50.748 81.588,47.632 L81.565,47.148 C81.524,46.404 81.073,45.74 80.393,45.428 C78.508,44.568 73.817,40.812 71.137,37.176 C69.104,37.76 66.752,38.08 64.384,38.08 C59.924,38.08 55.468,36.996 53.3,34.716 C52.544,33.912 52.572,32.644 53.38,31.888 C54.188,31.132 55.452,31.16 56.208,31.968 C58.184,34.056 65.036,34.656 69.691,33.436 C69.439,25.412 61.544,18.884 47.359,15.24 C47.879,14.528 48.939,14.084 51.22,14.084 C53.299,14.084 55.883,14.464 58.883,14.888 C62.808,15.456 67.263,16.092 71.984,16.092 C79.984,16.092 86.664,14.196 92.404,10.308 C93.221,9.764 93.508,8.712 93.1,7.824 L93.1,7.824 L93.1,7.824 Z" id="Shape"></path>
                </g>
            </g>
        </g>
    </g>
</svg>